<svg width="13" height="8" viewBox="0 0 13 8" fill="none" xmlns="http://www.w3.org/2000/svg">
<path fill-rule="evenodd" clip-rule="evenodd" d="M0.697471 4.65643C0.312255 4.65643 -2.28882e-05 4.34415 -2.28882e-05 3.95894C-2.28882e-05 3.57372 0.312256 3.26144 0.697472 3.26144L10.2101 3.26144C10.2133 3.26144 10.2149 3.25758 10.2127 3.2553L8.18332 1.21232C7.90727 0.934422 7.90802 0.48559 8.18499 0.208616C8.46262 -0.0690145 8.91275 -0.0690145 9.19038 0.208616L12.8986 3.91683C12.9218 3.94008 12.9218 3.97779 12.8986 4.00104L9.19038 7.70925C8.91275 7.98688 8.46262 7.98688 8.18499 7.70925C7.90802 7.43228 7.90727 6.98345 8.18332 6.70555L10.2127 4.66257C10.2149 4.6603 10.2133 4.65643 10.2101 4.65643L0.697471 4.65643Z"/>
</svg>
