<svg width="20" height="20" viewBox="0 0 20 20" fill="none" xmlns="http://www.w3.org/2000/svg">
<path d="M18.9727 7.75391C18.5547 7.23047 17.9844 6.94141 17.3672 6.94141H15.957C15.8242 3.32422 13.2031 0.429688 10 0.429688C6.79689 0.429688 4.1758 3.32422 4.04298 6.94141H2.63283C2.01564 6.94141 1.44533 7.23047 1.02736 7.75391C0.500015 8.41016 0.308609 9.32422 0.507828 10.2031L2.19923 17.6562C2.45314 18.7812 3.32814 19.5703 4.32423 19.5703H15.6719C16.668 19.5703 17.543 18.7852 17.7969 17.6562L19.4922 10.2031C19.6914 9.32422 19.5 8.41016 18.9727 7.75391ZM10 2.02344C12.3281 2.02344 14.2344 4.20312 14.3594 6.94141H5.64064C5.76564 4.20703 7.67189 2.02344 10 2.02344ZM17.9375 9.84766L16.2461 17.3047C16.1602 17.6875 15.9141 17.9766 15.6758 17.9766H4.32423C4.08595 17.9766 3.83986 17.6875 3.75392 17.3047L2.06252 9.84766C1.97267 9.45312 1.91798 8.53516 2.63283 8.53516H17.3672C18.1367 8.53516 18.0274 9.45312 17.9375 9.84766Z" fill="#212121"/>
<path d="M6.04294 10.121C5.60153 10.121 5.24606 10.4765 5.24606 10.9179V15.8984C5.24606 16.3398 5.60153 16.6953 6.04294 16.6953C6.48434 16.6953 6.83981 16.3398 6.83981 15.8984V10.9179C6.84372 10.4804 6.48434 10.121 6.04294 10.121Z" fill="#212121"/>
<path d="M9.90632 10.121C9.46491 10.121 9.10944 10.4765 9.10944 10.9179V15.8984C9.10944 16.3398 9.46491 16.6953 9.90632 16.6953C10.3477 16.6953 10.7032 16.3398 10.7032 15.8984V10.9179C10.7032 10.4804 10.3438 10.121 9.90632 10.121Z" fill="#212121"/>
<path d="M13.7656 10.121C13.3242 10.121 12.9688 10.4765 12.9688 10.9179V15.8984C12.9688 16.3398 13.3242 16.6953 13.7656 16.6953C14.207 16.6953 14.5625 16.3398 14.5625 15.8984V10.9179C14.5625 10.4804 14.207 10.121 13.7656 10.121Z" fill="#212121"/>
</svg>
