<svg width="17" height="20" viewBox="0 0 17 20" fill="none" xmlns="http://www.w3.org/2000/svg">
<path d="M10.8552 10.4871L10.85 10.4955M10.8552 10.4871L15.8771 2.20499M10.8552 10.4871L11.0276 10.5884C11.0273 10.589 11.027 10.5895 11.0267 10.59M10.8552 10.4871L11.0262 10.5908L11.0267 10.59M10.85 10.4955L1.07213 1.4094C1.18265 1.15758 1.40429 0.999466 1.64622 1H15.3539M10.85 10.4955C10.6675 10.7839 10.5689 11.1332 10.5683 11.4922L10.85 10.4955ZM15.8771 2.20499C16.0202 1.97191 16.0399 1.6646 15.9279 1.4094M15.8771 2.20499L16.0475 2.30965M15.8771 2.20499L16.0481 2.30868L16.0478 2.30914C16.2258 2.01905 16.2487 1.64275 16.111 1.32902M15.9279 1.4094C15.8174 1.15758 15.5957 0.999466 15.3539 1M15.9279 1.4094L16.111 1.329L16.111 1.32902M15.9279 1.4094L16.111 1.32902M15.3539 1V0.800001H15.3537H1.64642M15.3539 1L1.64642 0.800001M0.889004 1.329C0.751282 1.64269 0.774217 2.01881 0.952137 2.30876C0.952259 2.30895 0.952382 2.30915 0.952504 2.30935L5.9732 10.5901L5.97365 10.5908L0.889004 1.329ZM0.889004 1.329C1.0259 1.0171 1.31211 0.799366 1.64642 0.800001M0.889004 1.329L1.64622 0.800001H1.64642M16.111 1.32902L16.0475 2.30965M16.0475 2.30965L11.0267 10.59M16.0475 2.30965L10.7683 18.2446V18.2441V11.4926C10.7688 11.1691 10.8578 10.8572 11.019 10.6024L11.0225 10.5968L11.0225 10.5968C11.0235 10.5953 11.025 10.5928 11.0267 10.59M6.43141 11.4922C6.43095 11.1333 6.33217 10.7839 6.14986 10.4955L9.67408 18.9408M6.43141 11.4922V16.975C6.43141 17.3114 6.59925 17.5907 6.85214 17.681M6.43141 11.4922H6.23141V11.4925M6.43141 11.4922L6.23141 11.4925M6.85214 17.681L9.67408 18.9408M6.85214 17.681L6.78489 17.8693C6.78228 17.8684 6.77968 17.8675 6.77708 17.8665M6.85214 17.681L6.77061 17.8636L6.77708 17.8665M9.67408 18.9408L9.58677 19.1207C9.58779 19.1212 9.58881 19.1217 9.58984 19.1222M9.67408 18.9408L9.59255 19.1234L9.58984 19.1222M9.58984 19.1222L6.77708 17.8665M9.58984 19.1222L5.97827 10.5983C5.97829 10.5983 5.97831 10.5983 5.97833 10.5984L5.98071 10.6024L5.9808 10.6024C6.1419 10.8572 6.231 11.1693 6.23141 11.4925M6.77708 17.8665C6.42755 17.7373 6.23141 17.3671 6.23141 16.975V11.4925M10.0509 9.8491L14.7413 2.11373H2.2587L6.94931 9.84916C7.25028 10.328 7.41123 10.9034 7.4122 11.4919V11.4922V16.7342L9.5878 17.7053L9.5878 11.4922L9.5878 11.4919C9.58877 10.9033 9.74972 10.3279 10.0509 9.8491Z" fill="#212121" stroke="#212121" stroke-width="0.4"/>
</svg>
