<svg width="16" height="16" viewBox="0 0 16 16" fill="none" xmlns="http://www.w3.org/2000/svg">
<path d="M16 8.01569C16 9.13325 15.094 10.0392 13.9765 10.0392H10.1333V13.8667C10.1333 15.0449 9.17821 16 8 16C6.82179 16 5.86667 15.0449 5.86667 13.8667V10.0392H2.02353C0.905964 10.0392 0 9.13325 0 8.01569C0 6.89812 0.905965 5.99216 2.02353 5.99216H5.86667V2.13333C5.86667 0.955126 6.82179 0 8 0C9.17821 0 10.1333 0.955126 10.1333 2.13333V5.99216H13.9765C15.094 5.99216 16 6.89812 16 8.01569Z" fill="black"/>
</svg>
