<svg width="30" height="30" viewBox="0 0 30 30" fill="none" xmlns="http://www.w3.org/2000/svg">
<g clip-path="url(#clip0)">
<path d="M15 30C10.9934 30 7.22654 28.4397 4.39336 25.6066C1.56029 22.7735 0 19.0066 0 15C0 10.9934 1.56029 7.22654 4.39336 4.39336C7.22654 1.56029 10.9934 0 15 0C19.0066 0 22.7735 1.56029 25.6066 4.39336C28.4397 7.22654 30 10.9934 30 15C30 19.0066 28.4397 22.7735 25.6066 25.6066C22.7735 28.4397 19.0066 30 15 30ZM15 2.34375C8.02131 2.34375 2.34375 8.02131 2.34375 15C2.34375 21.9787 8.02131 27.6562 15 27.6562C21.9787 27.6562 27.6562 21.9787 27.6562 15C27.6562 8.02131 21.9787 2.34375 15 2.34375ZM20.4924 22.3788C19.9464 22.7263 19.222 22.5653 18.8746 22.0192C18.8602 21.9966 17.4018 19.7495 14.9414 19.7495C12.4811 19.7495 11.0227 21.9966 11.0082 22.0192C10.6607 22.5653 9.93645 22.7262 9.39041 22.3788C8.84438 22.0313 8.68342 21.307 9.03088 20.761C9.11807 20.624 11.2089 17.4057 14.9414 17.4057C18.6739 17.4057 20.7647 20.624 20.8519 20.761C21.1994 21.307 21.0384 22.0313 20.4924 22.3788ZM9.84375 9.66797C10.6528 9.66797 11.3086 10.3238 11.3086 11.1328C11.3086 11.9418 10.6528 12.5977 9.84375 12.5977C9.03475 12.5977 8.37891 11.9418 8.37891 11.1328C8.37891 10.3238 9.03475 9.66797 9.84375 9.66797ZM18.6328 11.1328C18.6328 11.9418 19.2887 12.5977 20.0977 12.5977C20.9067 12.5977 21.5625 11.9418 21.5625 11.1328C21.5625 10.3238 20.9067 9.66797 20.0977 9.66797C19.2887 9.66797 18.6328 10.3238 18.6328 11.1328Z" fill="#212121"/>
</g>
<defs>
<clipPath id="clip0">
<rect width="30" height="30" fill="white"/>
</clipPath>
</defs>
</svg>
