<?xml version="1.0" standalone="no"?>
<!DOCTYPE svg PUBLIC "-//W3C//DTD SVG 20010904//EN"
 "http://www.w3.org/TR/2001/REC-SVG-20010904/DTD/svg10.dtd">
<svg version="1.0" xmlns="http://www.w3.org/2000/svg"
 width="144.000000pt" height="144.000000pt" viewBox="0 0 144.000000 144.000000"
 preserveAspectRatio="xMidYMid meet">
<metadata>
Created by potrace 1.14, written by Peter Selinger 2001-2017
</metadata>
<g transform="translate(0.000000,144.000000) scale(0.100000,-0.100000)"
fill="#000000" stroke="none">
<path d="M425 1390 c-17 -11 -27 -20 -23 -20 3 0 -6 -13 -20 -29 -34 -36 -46
-52 -55 -71 -4 -8 -13 -24 -20 -35 -7 -11 -23 -39 -36 -62 -13 -23 -29 -39
-35 -37 -11 4 -47 -65 -61 -116 -4 -14 -14 -33 -23 -42 -8 -10 -12 -18 -9 -18
3 0 -2 -19 -13 -42 -10 -23 -16 -46 -14 -50 3 -4 1 -8 -5 -8 -7 0 -33 -57 -36
-80 0 -3 -3 -9 -6 -15 -4 -5 -10 -26 -14 -45 -4 -19 -12 -46 -18 -60 -6 -14
-12 -38 -14 -55 -3 -16 -9 -36 -15 -42 -7 -9 -6 -15 6 -19 9 -3 13 -11 9 -17
-3 -6 -7 -23 -8 -39 -2 -24 9 -36 69 -82 70 -53 234 -162 249 -164 16 -4 153
-75 168 -88 21 -18 200 -80 256 -89 23 -3 64 -11 91 -18 27 -7 74 -14 104 -16
l55 -2 46 57 c25 32 52 69 59 83 7 14 15 28 18 31 25 23 157 281 202 395 21
52 67 189 73 215 2 8 11 42 19 75 9 32 13 67 10 77 -10 33 -173 146 -330 227
-43 23 -86 46 -94 51 -46 28 -286 122 -345 135 -11 2 -47 11 -80 18 -84 20
-126 19 -160 -3z"/>
</g>
</svg>
